<?xml version="1.0" encoding="UTF-8"?>
<svg id="Layer_2" data-name="Layer 2" xmlns="http://www.w3.org/2000/svg" viewBox="0 0 110.06 11.25">
  <defs>
    <style>
      .cls-1 {
        fill: #231f20;
      }

      .cls-2 {
        fill: #fff;
      }
    </style>
  </defs>
  <g id="Layer_1-2" data-name="Layer 1">
    <g>
      <path class="cls-2" d="M5.17,11.25c-1.08,0-2-.24-2.78-.71-.77-.47-1.36-1.13-1.77-1.98-.41-.84-.62-1.83-.62-2.94s.21-2.1.62-2.94c.41-.85,1-1.5,1.77-1.98.77-.47,1.7-.71,2.78-.71,1.25,0,2.28.31,3.11.93s1.41,1.46,1.75,2.52l-1.82.5c-.21-.71-.57-1.26-1.07-1.65s-1.16-.6-1.96-.6c-.72,0-1.33.16-1.81.49s-.84.78-1.09,1.37c-.24.59-.37,1.28-.37,2.07,0,.79.12,1.48.36,2.07.24.59.61,1.04,1.09,1.37.48.32,1.09.49,1.81.49.8,0,1.46-.2,1.96-.6.5-.4.86-.95,1.07-1.65l1.82.5c-.33,1.06-.92,1.89-1.75,2.52-.83.62-1.87.93-3.11.93Z"/>
      <path class="cls-2" d="M13.18,11.02V.23h1.81v4.54h5.12V.23h1.8v10.8h-1.8v-4.56h-5.12v4.56h-1.81Z"/>
      <path class="cls-2" d="M25.5,11.02V.23h6.98v1.69h-5.17v2.66h4.27v1.69h-4.27v3.05h5.17v1.69h-6.98Z"/>
      <path class="cls-2" d="M35.77,11.02V.23h1.63l3.73,7.65L44.87.23h1.63v10.8h-1.69v-6.92l-3.31,6.92h-.72l-3.31-6.92v6.92h-1.7Z"/>
      <path class="cls-2" d="M54.67,11.25c-1.08,0-2.01-.24-2.78-.71-.77-.47-1.36-1.13-1.77-1.98-.41-.84-.62-1.83-.62-2.94s.21-2.1.62-2.94c.41-.85,1-1.5,1.77-1.98.77-.47,1.7-.71,2.78-.71s2.01.24,2.78.71c.77.47,1.37,1.13,1.78,1.98.41.84.62,1.82.62,2.94s-.21,2.1-.62,2.94c-.41.85-1,1.5-1.78,1.98-.77.47-1.7.71-2.78.71ZM54.67,9.55c.72,0,1.33-.15,1.81-.48.48-.32.84-.78,1.09-1.37.24-.59.36-1.28.36-2.07s-.12-1.48-.36-2.06c-.24-.58-.61-1.04-1.09-1.36-.48-.33-1.09-.49-1.81-.5-.73,0-1.33.15-1.81.48-.48.32-.84.78-1.08,1.37-.24.59-.36,1.28-.36,2.07s.12,1.48.36,2.06.6,1.04,1.08,1.36,1.09.49,1.81.5Z"/>
      <path class="cls-2" d="M62.84,11.02V.23h4.28c.73,0,1.33.15,1.8.44.47.29.81.67,1.04,1.12.23.46.34.93.34,1.41,0,.6-.14,1.1-.42,1.52-.28.42-.67.69-1.15.84v-.38c.68.16,1.2.48,1.55.97.35.49.53,1.05.53,1.67s-.12,1.2-.37,1.68-.61.85-1.09,1.12-1.08.4-1.79.4h-4.72ZM64.67,4.54h2.43c.26,0,.49-.05.7-.15.21-.1.37-.25.49-.44.12-.19.18-.44.18-.72,0-.38-.12-.69-.36-.94-.24-.25-.58-.38-1-.38h-2.43v2.62ZM64.67,9.32h2.66c.32,0,.6-.06.85-.19.25-.13.45-.31.59-.54s.21-.51.21-.83c0-.29-.06-.55-.19-.78s-.31-.41-.55-.55-.53-.21-.86-.21h-2.71v3.1Z"/>
      <path class="cls-2" d="M78.37,11.25c-1.08,0-2-.24-2.78-.71-.77-.47-1.36-1.13-1.77-1.98-.41-.84-.62-1.83-.62-2.94s.21-2.1.62-2.94c.41-.85,1-1.5,1.77-1.98.77-.47,1.7-.71,2.78-.71s2.01.24,2.78.71c.77.47,1.36,1.13,1.78,1.98.41.84.62,1.82.62,2.94s-.21,2.1-.62,2.94c-.41.85-1,1.5-1.78,1.98-.77.47-1.7.71-2.78.71ZM78.37,9.55c.72,0,1.33-.15,1.81-.48.48-.32.84-.78,1.09-1.37.24-.59.36-1.28.36-2.07s-.12-1.48-.36-2.06c-.24-.58-.6-1.04-1.09-1.36-.48-.33-1.09-.49-1.81-.5-.72,0-1.33.15-1.81.48-.48.32-.84.78-1.08,1.37-.24.59-.36,1.28-.36,2.07s.12,1.48.36,2.06c.24.58.6,1.04,1.08,1.36s1.09.49,1.81.5Z"/>
      <path class="cls-2" d="M88.84,11.02V1.92h-3.5V.23h8.8v1.69h-3.49v9.1h-1.81Z"/>
      <path class="cls-1" d="M95.8,11.02L99.2.23h2.65l3.4,10.8h-1.86l-3.09-9.69h.4l-3.05,9.69h-1.86ZM97.69,8.69v-1.69h5.67v1.69h-5.67Z"/>
      <path class="cls-1" d="M108.25,11.02V.23h1.81v10.8h-1.81Z"/>
    </g>
  </g>
</svg>