<?xml version="1.0" encoding="UTF-8"?>
<svg id="Layer_2" data-name="Layer 2" xmlns="http://www.w3.org/2000/svg" viewBox="0 0 65.05 65.05">
  <defs>
    <style>
      .cls-1 {
        stroke: #0761e6;
        stroke-width: 7px;
      }

      .cls-1, .cls-2, .cls-3 {
        stroke-miterlimit: 10;
      }

      .cls-1, .cls-3 {
        fill: none;
      }

      .cls-2 {
        fill: #2a84ff;
      }

      .cls-2, .cls-3 {
        stroke: #fff;
      }
    </style>
  </defs>
  <g id="Layer_1-2" data-name="Layer 1">
    <g>
      <circle class="cls-1" cx="32.52" cy="32.52" r="29.02"/>
      <line class="cls-3" x1="32.19" y1="17.87" x2="32.19" y2="47.39"/>
      <line class="cls-3" x1="46.93" y1="32.97" x2="17.42" y2="32.97"/>
      <line class="cls-3" x1="42.83" y1="22.2" x2="21.96" y2="43.07"/>
      <line class="cls-3" x1="42.39" y1="43.51" x2="21.52" y2="22.64"/>
      <circle class="cls-2" cx="32.19" cy="18.8" r="2.9"/>
      <circle class="cls-2" cx="32.19" cy="47.35" r="2.9"/>
      <circle class="cls-2" cx="21.68" cy="23.16" r="2.9"/>
      <circle class="cls-2" cx="41.86" cy="43.35" r="2.9"/>
      <circle class="cls-2" cx="42.49" cy="22.98" r="2.9"/>
      <circle class="cls-2" cx="22.3" cy="43.17" r="2.9"/>
      <circle class="cls-2" cx="46.14" cy="32.97" r="2.9"/>
      <circle class="cls-2" cx="17.59" cy="32.97" r="2.9"/>
      <circle class="cls-2" cx="32.19" cy="32.97" r="5.85"/>
      <polygon class="cls-3" points="32.19 31.52 32.47 32.37 33.36 32.37 32.64 32.89 32.91 33.74 32.19 33.22 31.47 33.74 31.74 32.89 31.02 32.37 31.92 32.37 32.19 31.52"/>
    </g>
  </g>
</svg>