<?xml version="1.0" encoding="UTF-8"?>
<svg id="Layer_2" data-name="Layer 2" xmlns="http://www.w3.org/2000/svg" viewBox="0 0 65.05 65.05">
  <defs>
    <style>
      .cls-1 {
        stroke: #0761e6;
        stroke-width: 7px;
      }

      .cls-1, .cls-2, .cls-3 {
        stroke-miterlimit: 10;
      }

      .cls-1, .cls-3 {
        fill: none;
      }

      .cls-2 {
        fill: #2a84ff;
      }

      .cls-2, .cls-3 {
        stroke: #fff;
      }
    </style>
  </defs>
  <g id="Layer_1-2" data-name="Layer 1">
    <g>
      <circle class="cls-1" cx="32.52" cy="32.52" r="29.02"/>
      <circle class="cls-3" cx="25.6" cy="24.2" r="3.94"/>
      <circle class="cls-3" cx="37.39" cy="17.84" r="1.98"/>
      <line class="cls-3" x1="19.5" y1="45.23" x2="23.86" y2="27.73"/>
      <line class="cls-3" x1="30.85" y1="45.01" x2="27.56" y2="27.56"/>
      <line class="cls-3" x1="28.13" y1="20.6" x2="35.53" y2="17.16"/>
      <line class="cls-3" x1="29.54" y1="24.2" x2="36.48" y2="19.59"/>
      <line class="cls-3" x1="39.05" y1="17.19" x2="43.15" y2="24.25"/>
      <line class="cls-3" x1="35.59" y1="18.92" x2="40.81" y2="25.41"/>
      <line class="cls-3" x1="17.33" y1="44.94" x2="33.01" y2="44.94"/>
      <g>
        <path class="cls-3" d="M45.83,31.56v10.54c0,1.57-1.27,2.84-2.84,2.84s-2.84-1.27-2.84-2.84v-10.54"/>
        <line class="cls-3" x1="42.98" y1="37.1" x2="45.81" y2="37.1"/>
        <line class="cls-3" x1="42.98" y1="39.95" x2="45.81" y2="39.95"/>
        <line class="cls-3" x1="38.11" y1="31.56" x2="48.08" y2="31.56"/>
      </g>
      <circle class="cls-2" cx="42.81" cy="26.16" r="1.98"/>
    </g>
  </g>
</svg>